<?xml version="1.0" standalone="no"?>
<!DOCTYPE svg PUBLIC "-//W3C//DTD SVG 20010904//EN"
 "http://www.w3.org/TR/2001/REC-SVG-20010904/DTD/svg10.dtd">
<svg version="1.0" xmlns="http://www.w3.org/2000/svg"
 width="260.000000pt" height="260.000000pt" viewBox="0 0 260.000000 260.000000"
 preserveAspectRatio="xMidYMid meet">
<metadata>
Created by potrace 1.14, written by Peter Selinger 2001-2017
</metadata>
<g transform="translate(0.000000,260.000000) scale(0.100000,-0.100000)"
fill="#000000" stroke="none">
<path d="M617 1629 c-27 -16 -47 -64 -47 -111 0 -30 14 -71 45 -138 37 -78 45
-105 45 -153 0 -63 -16 -105 -58 -149 -40 -43 -17 -45 34 -3 62 51 99 129 90
190 -3 24 -24 84 -46 133 -43 97 -51 159 -24 186 18 18 47 20 75 6 15 -8 19
-7 19 3 0 36 -91 61 -133 36z"/>
<path d="M342 1538 c-80 -39 -161 -164 -162 -248 0 -54 20 -87 66 -106 43 -18
75 -6 104 41 23 37 39 115 24 114 -5 0 -26 -23 -47 -50 -29 -37 -44 -49 -60
-47 -51 7 -16 135 59 215 36 38 54 40 34 4 -28 -53 29 -56 65 -4 35 52 33 78
-6 92 -18 6 -32 11 -33 11 -1 0 -21 -10 -44 -22z"/>
<path d="M1365 1545 c-59 -21 -84 -62 -45 -72 24 -6 24 -6 -32 -147 -48 -121
-47 -140 5 -144 89 -7 207 67 243 153 30 73 9 176 -43 203 -35 19 -88 22 -128
7z m89 -67 c14 -6 28 -19 31 -29 11 -33 -17 -110 -54 -149 -33 -35 -84 -60
-97 -48 -7 8 80 238 90 238 3 0 16 -5 30 -12z"/>
<path d="M478 1415 c-42 -29 -83 -93 -93 -146 -5 -29 -2 -41 17 -62 13 -14 35
-29 49 -32 80 -19 179 185 119 245 -26 26 -48 25 -92 -5z m53 -73 c-18 -63
-56 -112 -85 -112 -26 0 20 109 55 134 29 20 39 12 30 -22z"/>
<path d="M1162 1419 c-18 -12 -44 -38 -57 -57 l-24 -36 6 39 c9 55 -14 70 -70
48 -30 -12 -42 -14 -45 -5 -5 16 -55 15 -70 0 -9 -9 -12 -8 -12 5 0 22 -23 22
-42 0 -18 -22 -103 -211 -97 -217 2 -2 14 -7 26 -10 21 -7 27 1 63 76 33 71
73 119 85 106 2 -2 -12 -37 -30 -78 -39 -85 -41 -95 -19 -104 28 -11 32 -7 70
75 23 48 49 88 66 100 15 11 28 18 28 16 0 -3 -16 -39 -36 -80 -39 -83 -41
-110 -6 -115 15 -2 25 3 31 20 5 13 16 39 24 58 l16 35 -6 -32 c-4 -27 0 -38
25 -63 17 -16 40 -30 51 -30 32 0 86 55 111 112 30 70 30 115 1 139 -30 24
-48 24 -89 -2z m53 -66 c-12 -49 -37 -94 -62 -110 -32 -21 -39 -11 -24 36 20
69 102 138 86 74z"/>
<path d="M1645 1416 c-34 -15 -92 -76 -106 -113 -24 -64 2 -133 51 -133 58 0
127 53 115 90 -6 20 -7 20 -37 -5 -17 -14 -42 -25 -60 -25 -42 0 -31 22 19 36
57 17 101 41 113 63 17 32 12 69 -12 85 -27 19 -43 19 -83 2z m55 -55 c0 -10
-80 -44 -87 -38 -2 3 8 14 23 26 27 21 64 28 64 12z"/>
<path d="M1819 1423 c-10 -2 -30 -38 -48 -84 -42 -105 -47 -132 -27 -148 21
-18 30 -9 51 46 27 72 41 89 101 123 48 27 53 33 44 50 -12 23 -23 25 -53 9
-16 -9 -22 -9 -25 0 -4 11 -14 12 -43 4z"/>
<path d="M1932 1318 c-47 -103 -50 -114 -35 -125 9 -7 20 -13 25 -13 4 0 25
35 47 78 37 73 75 122 86 110 3 -3 -10 -41 -29 -84 -25 -57 -32 -82 -24 -91
21 -26 39 -11 77 65 21 42 51 88 67 102 30 28 30 26 -16 -77 -27 -60 -31 -75
-20 -88 30 -36 46 -16 100 134 l24 64 -23 18 c-21 17 -25 17 -64 2 -30 -12
-42 -14 -45 -5 -5 15 -37 16 -63 2 -14 -8 -19 -8 -17 2 2 7 -6 14 -18 16 -17
2 -28 -14 -72 -110z"/>
<path d="M2315 1411 c-67 -31 -115 -102 -115 -170 0 -31 38 -71 68 -71 33 0
102 42 108 65 10 40 -5 48 -38 20 -33 -28 -78 -34 -78 -10 0 8 8 15 18 15 29
0 120 47 131 69 18 32 13 69 -11 85 -28 20 -34 20 -83 -3z m55 -52 c0 -12 -67
-42 -83 -36 -13 4 51 47 71 47 6 0 12 -5 12 -11z"/>
<path d="M1427 1054 c-34 -69 -39 -94 -18 -94 5 0 23 33 41 73 44 99 44 97 28
97 -7 0 -30 -34 -51 -76z"/>
<path d="M1358 1100 c-22 -14 -58 -73 -58 -97 0 -21 29 -53 48 -53 16 0 44 57
32 65 -6 3 -13 -1 -16 -9 -7 -18 -34 -22 -34 -6 0 6 7 25 16 41 12 23 18 28
28 20 17 -14 41 12 32 34 -6 17 -23 19 -48 5z"/>
<path d="M879 1035 c-17 -35 -28 -69 -25 -74 7 -11 135 -10 153 2 7 4 21 2 32
-4 15 -10 24 -9 44 4 22 14 26 14 31 2 3 -8 14 -15 24 -15 22 0 46 25 38 39
-3 5 0 11 7 14 10 4 13 -2 9 -19 -6 -34 14 -30 33 6 8 16 24 34 35 40 25 14
17 30 -15 30 -16 0 -26 -7 -31 -22 l-7 -23 -8 23 c-9 25 -21 27 -51 11 -13 -7
-23 -8 -27 -1 -3 5 -30 10 -59 10 -42 0 -59 -6 -83 -25 -16 -14 -29 -32 -29
-40 0 -10 -6 -13 -16 -9 -9 3 -22 6 -30 6 -11 0 -8 13 11 55 19 45 21 55 9 55
-9 0 -28 -27 -45 -65z m216 -15 c4 -6 11 -7 17 -4 7 4 8 2 4 -5 -6 -9 -12 -9
-24 1 -10 7 -19 14 -21 15 -2 2 1 3 7 3 6 0 14 -5 17 -10z m-104 -23 c-10 -9
-11 -8 -5 6 3 10 9 15 12 12 3 -3 0 -11 -7 -18z m67 11 c15 -15 15 -28 1 -28
-5 0 -7 5 -4 10 3 6 -1 10 -9 10 -9 0 -16 5 -16 10 0 14 13 13 28 -2z"/>
<path d="M1495 1070 c-3 -5 -3 -10 2 -10 4 0 3 -4 -3 -8 -13 -8 -44 -66 -44
-82 0 -21 21 -9 31 18 6 15 17 40 25 56 8 16 14 31 14 33 0 7 -19 2 -25 -7z"/>
<path d="M1649 1073 c-1 -5 -1 -11 0 -15 0 -5 -3 -8 -7 -8 -15 0 -53 -78 -42
-85 6 -4 13 -5 15 -4 4 5 55 112 55 116 0 7 -20 3 -21 -4z"/>
<path d="M1685 1056 c-34 -34 -43 -75 -20 -93 25 -18 32 -17 45 8 14 26 6 36
-15 19 -12 -10 -15 -9 -15 6 1 26 26 59 33 42 3 -10 7 -10 17 -1 14 13 7 43
-10 43 -6 0 -22 -11 -35 -24z"/>
<path d="M1542 1057 c-23 -27 -42 -86 -31 -92 6 -4 11 -5 13 -4 1 2 13 20 25
39 13 19 20 26 16 15 -17 -47 -17 -55 -3 -55 19 0 55 77 42 89 -18 17 -51 21
-62 8z"/>
</g>
</svg>
