<svg xmlns="http://www.w3.org/2000/svg" viewBox="0 0 736.75 34.88"><defs><style>.cls-1{fill:#686868;}</style></defs><g id="Layer_2" data-name="Layer 2"><g id="Layer_1-2" data-name="Layer 1"><path class="cls-1" d="M43.87,1.77a29.43,29.43,0,0,1,5.38-.49c3,0,5.26.78,6.65,2.13a6.64,6.64,0,0,1,1.93,4.93,7.14,7.14,0,0,1-1.74,5c-1.61,1.85-4.32,2.81-7.39,2.81a10.85,10.85,0,0,1-3.06-.3V26.64H43.87Zm1.77,12.55a11.28,11.28,0,0,0,3.2.36c4.5,0,7.2-2.18,7.2-6.16s-2.87-5.74-6.86-5.74a18.53,18.53,0,0,0-3.54.3Z"/><path class="cls-1" d="M77,17.51c0,6.69-4.58,9.54-8.57,9.54-4.64,0-8.21-3.6-8.21-9.23,0-6.13,4-9.51,8.47-9.51C73.58,8.31,77,12,77,17.51Zm-15,.23c0,4.47,2.85,7.83,6.54,7.83s6.66-3.38,6.66-8c0-3.27-1.85-7.81-6.57-7.81C64,9.78,62,13.87,62,17.74Z"/><path class="cls-1" d="M81,8.72l3,10.19c.62,2.1,1.13,3.9,1.53,5.62h.1c.43-1.66,1.06-3.55,1.79-5.6L91,8.72h1.69l3.41,10.11c.74,2.17,1.3,4,1.76,5.7h.09c.37-1.68.93-3.48,1.62-5.64l3.21-10.17h1.81l-6,17.92H97.06l-3.38-10a57.31,57.31,0,0,1-1.86-6.1h-.07c-.54,2.11-1.21,4.09-2,6.17l-3.57,9.91H84.66L79.15,8.72Z"/><path class="cls-1" d="M108.28,17.51c0,5.72,3.12,8,6.82,8a10.32,10.32,0,0,0,5-1l.46,1.4A12.11,12.11,0,0,1,114.88,27c-5.15,0-8.35-3.75-8.35-9,0-6,3.43-9.72,8-9.72,5.87,0,7,5.52,7,8.1a6.86,6.86,0,0,1,0,1.1Zm11.43-1.42c0-2.5-1-6.31-5.36-6.31-3.94,0-5.65,3.55-6,6.31Z"/><path class="cls-1" d="M126.11,14.1c0-1.8-.06-3.64-.15-5.38h1.64l.08,3.64h.1a5.52,5.52,0,0,1,5.08-4,3.33,3.33,0,0,1,.73.08v1.7a4.58,4.58,0,0,0-.86-.05c-2.45,0-4.21,2.13-4.7,5a10.24,10.24,0,0,0-.15,1.7v9.89h-1.77Z"/><path class="cls-1" d="M137,17.51c0,5.72,3.12,8,6.81,8a10.34,10.34,0,0,0,5-1l.45,1.4A12.09,12.09,0,0,1,143.59,27c-5.15,0-8.35-3.75-8.35-9,0-6,3.42-9.72,8-9.72,5.87,0,7,5.52,7,8.1a5.73,5.73,0,0,1-.06,1.1Zm11.42-1.42c.05-2.5-1-6.31-5.35-6.31-3.94,0-5.65,3.55-6,6.31Z"/><path class="cls-1" d="M169.1.14V22.47c0,1.32.06,2.91.15,4.17h-1.6l-.13-3.4h-.09a6.72,6.72,0,0,1-6.37,3.81c-4.42,0-7.72-3.7-7.72-9,0-6,3.65-9.7,8.07-9.7a6.36,6.36,0,0,1,5.84,3.15h.08V.14Zm-1.77,15.67a7.54,7.54,0,0,0-.18-1.63,5.77,5.77,0,0,0-5.65-4.4c-3.89,0-6.37,3.4-6.37,8,0,4,2,7.75,6.28,7.75a5.93,5.93,0,0,0,5.73-4.69,5.31,5.31,0,0,0,.19-1.48Z"/><path class="cls-1" d="M199,26.64c-.83-.83-1.56-1.64-2.78-2.86a10.38,10.38,0,0,1-7.62,3.27,6.9,6.9,0,0,1-7.09-7c0-3.49,2.16-5.79,5-7.42V12.5A9.32,9.32,0,0,1,184.25,7a5.65,5.65,0,0,1,5.67-5.93,4.71,4.71,0,0,1,4.8,5c0,2.7-1.58,4.73-5.86,6.86V13c2.57,3,5.46,6.28,7.32,8.42,1.24-1.87,2-4.37,2.6-8.09h1.69c-.68,4-1.64,7.08-3.29,9.11,1.3,1.33,2.5,2.58,4,4.16Zm-3.76-3.93c-1.46-1.69-4.73-5.25-7.94-9-1.58,1-4,2.84-4,6.11a5.57,5.57,0,0,0,5.71,5.78A8.25,8.25,0,0,0,195.19,22.71ZM185.94,6.83a8.52,8.52,0,0,0,2,5.08c3-1.58,5.07-3.13,5.07-5.68,0-1.78-1-3.73-3.39-3.73S185.94,4.53,185.94,6.83Z"/><path class="cls-1" d="M212.42,1.83a39,39,0,0,1,6.44-.55c4.58,0,8.06,1.25,10.13,3.45s3.13,4.91,3.13,8.71A13.84,13.84,0,0,1,228.84,23c-2.21,2.42-6,3.85-10.85,3.85a53,53,0,0,1-5.57-.22Zm1.77,23.31a29.33,29.33,0,0,0,4.06.19c8.08,0,12.05-4.52,12.05-11.8.06-6.39-3.49-10.75-11.55-10.75a23.34,23.34,0,0,0-4.56.4Z"/><path class="cls-1" d="M237,17.51c0,5.72,3.12,8,6.82,8a10.32,10.32,0,0,0,5-1l.46,1.4A12.15,12.15,0,0,1,243.63,27c-5.15,0-8.35-3.75-8.35-9,0-6,3.42-9.72,8.05-9.72,5.87,0,7,5.52,7,8.1a6.86,6.86,0,0,1-.05,1.1Zm11.42-1.42c.05-2.5-1-6.31-5.35-6.31-3.94,0-5.65,3.55-6,6.31Z"/><path class="cls-1" d="M254.13,24.28a7.73,7.73,0,0,0,4,1.25c2.82,0,4.16-1.55,4.16-3.42s-1.18-3-3.77-4c-2.93-1.14-4.54-2.73-4.54-4.91,0-2.58,2-4.85,5.51-4.85a7.09,7.09,0,0,1,4,1.14l-.71,1.45a6,6,0,0,0-3.55-1.09,3.16,3.16,0,0,0-3.49,3.1c0,1.88,1.27,2.67,3.72,3.68,2.89,1.15,4.61,2.58,4.61,5.3C264.08,25,261.7,27,258,27a8.8,8.8,0,0,1-4.55-1.24Z"/><path class="cls-1" d="M271.11,3.6a1.44,1.44,0,1,1-2.87,0,1.51,1.51,0,0,1,1.45-1.55A1.45,1.45,0,0,1,271.11,3.6Zm-2.32,23V8.72h1.77V26.64Z"/><path class="cls-1" d="M291,8.72c-.09,1.34-.15,2.75-.15,4.63V24c0,4.59-.94,6.87-2.45,8.3a8.9,8.9,0,0,1-6.07,2.12,10.24,10.24,0,0,1-5.69-1.54l.63-1.43A9.62,9.62,0,0,0,282.62,33c3.76,0,6.48-1.95,6.48-7.26V23.17H289a6.72,6.72,0,0,1-6.23,3.47c-4.5,0-7.68-3.93-7.68-8.79,0-6.26,4.1-9.54,8.07-9.54a6.3,6.3,0,0,1,6,3.43h.07l.11-3Zm-1.92,6.89a5.49,5.49,0,0,0-.23-1.73,5.79,5.79,0,0,0-5.57-4.1c-3.79,0-6.4,3.12-6.4,7.86,0,4,2.12,7.52,6.36,7.52a5.85,5.85,0,0,0,5.52-4.06,6,6,0,0,0,.32-1.89Z"/><path class="cls-1" d="M296.6,13c0-1.64-.05-2.87-.15-4.28h1.65l.13,3.24h.08a6.75,6.75,0,0,1,6.17-3.65c1.7,0,6.25.88,6.25,7.59V26.64H309V16.06c0-3.27-1.26-6.23-5-6.23a5.82,5.82,0,0,0-5.62,5.72V26.64H296.6Z"/><path class="cls-1" d="M316.88,17.51c0,5.72,3.12,8,6.81,8a10.34,10.34,0,0,0,5-1l.45,1.4A12.09,12.09,0,0,1,323.48,27c-5.15,0-8.35-3.75-8.35-9,0-6,3.42-9.72,8.05-9.72,5.87,0,7,5.52,7,8.1a5.73,5.73,0,0,1-.06,1.1Zm11.42-1.42c.05-2.5-1-6.31-5.35-6.31-3.94,0-5.65,3.55-6,6.31Z"/><path class="cls-1" d="M349,.14V22.47c0,1.32.06,2.91.15,4.17h-1.6l-.13-3.4h-.09A6.72,6.72,0,0,1,341,27.05c-4.42,0-7.72-3.7-7.72-9,0-6,3.65-9.7,8.07-9.7a6.36,6.36,0,0,1,5.84,3.15h.08V.14Zm-1.77,15.67a7.54,7.54,0,0,0-.18-1.63,5.77,5.77,0,0,0-5.65-4.4c-3.89,0-6.37,3.4-6.37,8,0,4,2,7.75,6.28,7.75A5.93,5.93,0,0,0,347,20.88a5.31,5.31,0,0,0,.19-1.48Z"/><path class="cls-1" d="M363.23,1.83a22.64,22.64,0,0,1,5.06-.55c3.14,0,5.19.69,6.58,2.09a5.54,5.54,0,0,1,1.55,4.14,6.11,6.11,0,0,1-4.33,5.61v.1a6.52,6.52,0,0,1,5.31,6.4,6.64,6.64,0,0,1-1.87,4.8c-1.66,1.72-4.36,2.41-7.94,2.41-1.91,0-3.38-.14-4.36-.22ZM365,12.55h3.67c3.64,0,5.93-2.16,5.93-5,0-3.53-2.68-4.82-6.41-4.82a13.81,13.81,0,0,0-3.19.27Zm0,12.58a15.76,15.76,0,0,0,3.08.21c3.86,0,7.47-1.38,7.47-5.66,0-4-3.4-5.68-7.38-5.69H365Z"/><path class="cls-1" d="M381.72,8.72l4.7,11.71c.49,1.27,1,2.72,1.31,3.86h.08c.36-1.11.83-2.51,1.36-4l4.38-11.6h1.9l-5.38,13.37c-2.16,5.56-3.68,8.89-6,10.92a10.1,10.1,0,0,1-3.14,1.87l-.57-1.49a9.17,9.17,0,0,0,3.13-2,14,14,0,0,0,3-4.51,2.34,2.34,0,0,0,.22-.78,2.11,2.11,0,0,0-.22-.78L379.83,8.72Z"/><path class="cls-1" d="M612.12,25.76A16.1,16.1,0,0,1,605.34,27c-6.08,0-11.91-3.89-11.91-12.82,0-7.48,4.82-13.12,12.76-13.12A13.05,13.05,0,0,1,612,2.19l-.58,1.5a12.11,12.11,0,0,0-5.23-1.09c-6.79,0-10.93,4.41-10.93,11.65,0,6.83,3.9,11.24,10.63,11.24a13.16,13.16,0,0,0,5.68-1.17Z"/><path class="cls-1" d="M631.4,17.51c0,6.69-4.58,9.54-8.57,9.54-4.64,0-8.21-3.6-8.21-9.23,0-6.13,4-9.51,8.47-9.51C628,8.31,631.4,12,631.4,17.51Zm-15,.23c0,4.47,2.85,7.83,6.54,7.83s6.66-3.38,6.66-8c0-3.27-1.85-7.81-6.57-7.81C618.48,9.78,616.41,13.87,616.41,17.74Z"/><path class="cls-1" d="M636,13c0-1.64-.06-2.87-.15-4.28h1.65l.13,3.17h.08a6.25,6.25,0,0,1,5.81-3.58,5.43,5.43,0,0,1,5.14,3.92h.08a7.24,7.24,0,0,1,1.83-2.43,6.11,6.11,0,0,1,4.28-1.49c1.74,0,5.84,1,5.84,7.77V26.64h-1.77V16.25c0-4-1.56-6.42-4.68-6.42a5.21,5.21,0,0,0-4.7,3.56,5.59,5.59,0,0,0-.31,1.77V26.64h-1.77V15.44c0-3.23-1.55-5.61-4.44-5.61a5.56,5.56,0,0,0-5,4,6.21,6.21,0,0,0-.27,1.73v11H636Z"/><path class="cls-1" d="M666.52,14.44c0-2.24,0-4-.15-5.72h1.7l.13,3.4h.08a7.09,7.09,0,0,1,6.6-3.81c4.6,0,7.71,3.81,7.71,9.07,0,6.41-3.81,9.67-8.14,9.67a6.8,6.8,0,0,1-6.08-3.32h-.07V34h-1.78Zm1.78,5.14a6.15,6.15,0,0,0,.16,1.43,6,6,0,0,0,5.88,4.56c4.12,0,6.46-3.34,6.46-8.12,0-4-2.25-7.67-6.31-7.67a6.24,6.24,0,0,0-5.93,4.78,6.9,6.9,0,0,0-.26,1.53Z"/><path class="cls-1" d="M696.91,26.64l-.26-2.57h-.09a6.75,6.75,0,0,1-5.71,3,4.89,4.89,0,0,1-5.27-4.93c0-4.13,3.64-6.62,10.93-6.55v-.48c0-1.77-.35-5.31-4.58-5.28a7.84,7.84,0,0,0-4.5,1.34l-.56-1.29a9.59,9.59,0,0,1,5.25-1.55c5.17,0,6.16,3.88,6.16,7.08v7a30.09,30.09,0,0,0,.26,4.26Zm-.4-9.58c-3.9-.11-9,.48-9,4.78A3.4,3.4,0,0,0,691,25.57a5.39,5.39,0,0,0,5.3-3.59,3.41,3.41,0,0,0,.19-1.07Z"/><path class="cls-1" d="M704.09,13c0-1.64-.06-2.87-.15-4.28h1.65l.13,3.24h.07A6.75,6.75,0,0,1,712,8.31c1.71,0,6.25.88,6.25,7.59V26.64h-1.77V16.06c0-3.27-1.26-6.23-5-6.23a5.78,5.78,0,0,0-5.62,5.72V26.64h-1.77Z"/><path class="cls-1" d="M723,8.72l4.7,11.71c.49,1.27,1,2.72,1.31,3.86h.08c.36-1.11.83-2.51,1.36-4l4.38-11.6h1.9l-5.38,13.37c-2.16,5.56-3.68,8.89-6,10.92a10.1,10.1,0,0,1-3.14,1.87l-.57-1.49a9.17,9.17,0,0,0,3.13-2,14,14,0,0,0,3-4.51,2.34,2.34,0,0,0,.22-.78,2.11,2.11,0,0,0-.22-.78L721.13,8.72Z"/><path class="cls-1" d="M3.34,9.25c.11,0,.15.09.21.15.93.94,1.86,1.87,2.78,2.81,1.39,1.4,2.77,2.81,4.15,4.21q3,3,5.93,6c.16.16.24.17.41,0l5.86-5.81,5-5c.14-.14.21-.16.35,0,.94,1,1.88,1.93,2.84,2.88.15.15.14.22,0,.37-1.63,1.62-3.25,3.26-4.87,4.89l-8.09,8.1c-.34.34-.69.67-1,1s-.31.19-.5,0c-.85-.85-1.7-1.68-2.56-2.52L4,16.7.11,12.86c-.12-.11-.16-.18,0-.32,1-1,2.05-2.08,3.08-3.12Z"/><path class="cls-1" d="M19.76,3.18c0,.1-.08.13-.13.19C19,4,18.42,4.61,17.8,5.22c-2.19,2.19-4.4,4.37-6.6,6.56-.27.26-.27.27-.53,0C9.74,10.84,8.81,9.9,7.87,9c-.15-.16-.13-.23,0-.37L16,.54c.21-.2.42-.52.66-.54s.4.35.6.55L19.61,3Z"/><path class="cls-1" d="M25.37,8.89l-.15.17-1.29,1.3q-3.55,3.59-7.12,7.15c-.17.18-.26.18-.43,0-.94-1-1.89-1.91-2.85-2.86-.14-.14-.13-.21,0-.35L22,5.86c.15-.16.24-.17.39,0,.95,1,1.9,1.94,2.86,2.9Z"/><path class="cls-1" d="M403.31,1.49c1.57,0,3.13,0,4.7,0,.77,0,.91.27.91,1-.05,6.05,0,12.11-.12,18.17,0,1,.29,1.26,1.28,1.25,5.61,0,11.21,0,16.82,0,.86,0,1.16.22,1.09,1.1a20.27,20.27,0,0,0,0,2.81c0,.71-.24.91-.9.88s-1.6,0-2.4,0H404.55c-.41,0-.83-.05-1.24-.07Z"/><path class="cls-1" d="M529.24,13a3.35,3.35,0,0,0-.15,1.56c0,3.69,0,7.39,0,11.08,0,.71-.19,1-.94.95-1-.06-1.95,0-2.92,0-.57,0-.8-.14-.8-.75q0-9.62,0-19.23c0-.51.11-.73.69-.75a6.2,6.2,0,0,1,4.41,1.33c4.91,3.94,10,7.73,15,11.57.25.19.49.62.86.4s.14-.58.14-.88c0-3.83,0-7.66,0-11.5,0-.73.2-1,.93-.92,1,.06,1.95,0,2.92,0,.5,0,.76.07.75.67q0,9.72,0,19.44c0,.49-.16.68-.66.67-1.18,0-2.37,0-3.55,0a1.73,1.73,0,0,1-1.18-.57L529.89,13.56Z"/><path class="cls-1" d="M461.14,5.94c1.49,0,3,0,4.46,0,.57,0,.65.46.84.8q3.69,6.5,7.34,13c.17.3.35.58.6,1,.46-.74.86-1.38,1.24-2,2.32-4,4.65-7.93,6.94-11.91A1.31,1.31,0,0,1,483.87,6c1.52,0,3,0,4.57,0A1.64,1.64,0,0,1,488,7.07c-3.82,6.23-7.67,12.45-11.47,18.7a1.87,1.87,0,0,1-1.65.94c-1.64.19-2.51-.44-3.3-1.9-3.27-6-6.7-11.89-10.06-17.83A1.69,1.69,0,0,1,461.14,5.94Z"/><path class="cls-1" d="M503.18,11.88l-4.92,8.72c-1,1.76-2,3.5-2.95,5.28a1.33,1.33,0,0,1-1.4.8c-1.31-.05-2.62,0-4.12,0l1.87-3.34c3.1-5.47,6.23-10.94,9.3-16.43a1.84,1.84,0,0,1,1.71-1,2.94,2.94,0,0,1,3.19,1.76c3.59,6,7.32,12,11,18,.17.28.57.58.32.9s-.58.12-.89.12c-1.11,0-2.23,0-3.34,0a1.56,1.56,0,0,1-1.65-.92c-2.42-4.23-4.9-8.42-7.36-12.62C503.72,12.76,503.48,12.37,503.18,11.88Z"/><path class="cls-1" d="M569.44,6c3.94,0,7.88,0,11.82,0,.52,0,.7.1.64.59v.21c0,.91.3,2-.12,2.66s-1.67.24-2.55.27c-2.05.07-4.11.11-6.16.07-.92,0-1.24.18-1.23,1.18.06,4.84,0,9.69,0,14.53,0,1-.31,1.26-1.23,1.18a20.34,20.34,0,0,0-2.92-.06c-.82.06-1-.27-1-1,0-4.88,0-9.76,0-14.64,0-1-.28-1.29-1.28-1.26-2.61.07-5.23,0-7.84,0-.68,0-.89-.2-.9-.88,0-2.78,0-2.78,2.74-2.78h9.92Z"/><path class="cls-1" d="M443.13,26.28a.42.42,0,0,1-.5-.24c-.41-.73-.82-1.45-1.22-2.18-.31-.57.24-.63.52-.79,2.44-1.42,4.88-2.82,7.32-4.23,1.71-1,3.44-1.95,5.14-3,.61-.37.85-.24,1.16.37,1.27,2.47,1.29,2.46-1.11,3.79l-10.66,5.9Z"/><path class="cls-1" d="M435.14,12.34c-.32,0-.36-.25-.47-.41-1.46-2.31-1.46-2.3.95-3.65,3.55-2,7.1-4,10.63-6,.63-.36.93-.31,1.28.34,1.17,2.15,1.19,2.13-1,3.33l-10.74,6C435.59,12.11,435.34,12.23,435.14,12.34Z"/><path class="cls-1" d="M446.4,14.57c0,.39-.28.44-.47.55-2.15,1.22-4.31,2.41-6.46,3.64-.48.28-.69.18-1-.27-1.32-2.14-1.34-2.13.82-3.36,1.6-.91,3.23-1.79,4.81-2.73.58-.35.9-.3,1.2.33S446.05,14,446.4,14.57Z"/></g></g></svg>