<svg xmlns="http://www.w3.org/2000/svg" xmlns:xlink="http://www.w3.org/1999/xlink" viewBox="0 0 352.49 107.81"><defs><style>.cls-1{fill:none;}.cls-2{clip-path:url(#clip-path);}.cls-3{fill:#8d8d90;}.cls-4{fill:#ef8a35;}</style><clipPath id="clip-path" transform="translate(-11.58 -5.33)"><rect class="cls-1" width="372.39" height="122"/></clipPath></defs><g id="Layer_2" data-name="Layer 2"><g id="Layer_1-2" data-name="Layer 1"><g class="cls-2"><path class="cls-3" d="M186.56,77.5c-5,.06-7.36-3.39-5.84-7.35l14.1-36.55a12.31,12.31,0,0,0,.5-1.56c.13-.53.3-1.19-.26-1.49-.29-.15-.84.12-1.24.29a15.25,15.25,0,0,0-1.7.89c-1.56.91-2.3.26-2.76-1.29-.81-2.7-.49-4.53,2.24-6.34,7.06-4.68,14.37-6.64,22.55-3.78,7.49,2.63,11.41,8.28,12.6,15.85,1.85,11.89-3.6,21.26-11.46,29.19S197.13,77.1,186.56,77.5Zm31.41-38c.65-7.79-5.24-10.53-10.29-10.76a2.64,2.64,0,0,0-3,2.07c-1.28,3.71-2.74,7.36-4.11,11q-4.51,12-9,24.1C191,67.38,190.62,68.3,193,68,208.29,66,216.36,53.2,218,39.46Z" transform="translate(-11.58 -5.33)"/><path class="cls-3" d="M332.89,44.81c0,4.18-1.76,7.09-2.85,10.16-2.26,6.37-4.78,12.64-7.24,18.94a15,15,0,0,1-1.39,2.67c-.78,1.22-1.7,2-3,.43a3,3,0,0,0-.83-.71c-3.34-2-3.61-2.58-2.29-6.37,2.2-6.32,5.55-12.12,8.39-18.15a14.31,14.31,0,0,0,.69-1.49c.41-1.25,1.9-2.8.88-3.7-1.36-1.22-2.9.41-4.12,1.2a20.08,20.08,0,0,0-7.56,8.84c-2.82,6.34-5.5,12.75-9,18.77-.61,1-1.34,2.93-2.73,1.81s-5.09-.91-3.95-4.75a73.59,73.59,0,0,1,4.87-11.61c1.82-3.69,3.68-7.36,5.13-11.21.3-.81.76-1.87,0-2.58s-1.58.09-2.28.41a18,18,0,0,0-9.4,9.54,198.65,198.65,0,0,1-9.45,19.48c-.93,1.66-1.56,1.79-2.59.2a2,2,0,0,0-1.5-1.1c-3.14-.1-2.84-1.73-1.86-3.86,4.57-10,9.08-20,13.66-29.92.4-.87.71-2.48,1.61-2.32,1.56.27,3.05-.22,4.48,0s.52,1.46.31,2.29c-.14.58-.78,1.21-.08,1.72s1.19-.09,1.74-.41c1.81-1,3.43-2.43,5.51-3,2.81-.82,5.28.09,5.86,2.81s1.83,1.77,3.17,1c2.89-1.77,5.7-3.7,9.19-4.08C330.05,39.32,332.84,41.81,332.89,44.81Z" transform="translate(-11.58 -5.33)"/><path class="cls-3" d="M154.54,45.87c0,2.06-.85,3.9-1.54,5.78-2.83,7.71-5.38,15.54-8.84,23-.63,1.37-1,3.68-3.22,2.87-4.48-1.64-5.1-2.71-4.33-5.78,1.52-6,4.75-11.26,7.36-16.79,1.06-2.23,2.08-4.48,3.11-6.72.27-.59.57-1.23.09-1.8-.64-.75-1.37-.23-2,.08a20.87,20.87,0,0,0-9.77,10c-2.92,6.19-5.8,12.4-8.78,18.56-.53,1.08-.81,2.89-2.85,2.17-4.1-1.45-4.83-2.33-4.06-5.13,1.4-5.06,4.22-9.49,6.33-14.24,1.26-2.84,2.55-5.67,3.68-8.56.25-.64,1-1.57.15-2.25-.7-.56-1.55-.25-2.32.14a18.94,18.94,0,0,0-9.68,9.88,198.08,198.08,0,0,1-9.22,19.28c-.85,1.58-1.63,2.24-2.79.27a2.45,2.45,0,0,0-1.52-1.08c-3.17-.94-3.1-.93-1.68-4q6.73-14.7,13.38-29.43c.87-1.92,4.4-3.49,6.3-2.64,1.28.57.61,1.47.26,2.3-.23.56-.77,1.22-.08,1.72s1.2,0,1.75-.38a50.63,50.63,0,0,1,5-2.82c2.93-1.3,5.56-.16,6.47,2.91.62,2.07,1.56,1.62,2.78.8a26.3,26.3,0,0,1,8.62-4.13C151.53,38.85,154.59,41.4,154.54,45.87Z" transform="translate(-11.58 -5.33)"/><path class="cls-3" d="M11.58,60.7c-.05-7.55,3-14,7.07-20.11,4.56-6.88,9.61-13.37,16.56-18.09a26.89,26.89,0,0,1,7.22-3.27,4.52,4.52,0,0,1,3,0,23.22,23.22,0,0,0,5.27,1.38c2.42.28,3.68,2.8,3,5.49C52.33,31.86,47.92,35.5,44,39.44c-1.1,1.11-2.36-.33-3.45-.87a2,2,0,0,1-.85-2.84c.84-2,1.79-4,2.69-6,.23-.5.54-1,0-1.51a1.32,1.32,0,0,0-1.54,0,18.33,18.33,0,0,0-6.5,4.46A64,64,0,0,0,20.84,56.52a17.43,17.43,0,0,0-.57,7.86c.77,5.32,4.8,7,9.08,3.8,3.44-2.57,5.51-6.31,8.14-9.57.46-.57.78-1.24,1.23-1.82,1-1.23,1.41-2.95,3.17-3.46.22,1.59.86,3.25.6,4.75-1.25,7.09-4.16,13.41-9.8,18.14C30.15,78.35,27,78.35,24,77.45A16.65,16.65,0,0,1,11.58,60.7Z" transform="translate(-11.58 -5.33)"/><path class="cls-4" d="M101.3,13.69c-3.73-2.13-7-3.6-10.89-2.72a9.45,9.45,0,0,0-7.49,7.79c-1.33,7.47,1.36,14,4.56,20.49S93.93,51.78,96,58.56c3.49,11.69.06,21.59-7.85,30.31a72.18,72.18,0,0,1-11.62,10,2,2,0,0,1-2.29.43c1.41-1.6,2.7-3.19,4.11-4.66,10.8-11.26,13.4-26.25,5.89-41.24C81.5,48,78.77,42.65,76.39,37.12c-2.9-6.75-4.47-13.75-2.11-21.07,3.38-10.5,15.33-14.88,25.41-5.79C100.53,11,100.85,12,101.3,13.69Z" transform="translate(-11.58 -5.33)"/><path class="cls-3" d="M250.24,62.87c-.19,2.68,2.59,4,.82,6.56-3.92,5.75-13.37,10.26-20.12,8.46-5.16-1.38-8.11-7.16-6.69-13.38,2.08-9.15,6.69-16.7,14.9-21.73a23.91,23.91,0,0,1,10.58-3.47c3.38-.29,5.71,1.73,7.37,4.39,2.07,3.32,1.53,6.67-.5,9.81-2.34,3.63-6.08,5.46-9.82,7.19a36.23,36.23,0,0,1-12.54,3.73c-2,.14-2.45,1.4-2.58,2.93s.33,2.93,2.18,3.25c5.1.87,9.29-1.13,13.07-4.23A41.79,41.79,0,0,0,250.24,62.87Zm1.21-14c.05-1.88-1.4-1.8-2.48-1.91-3.66-.38-12,4.72-13.3,8.09-.31.8-.43,1.88,1,1.49,4.54-1.27,9.26-2.15,13.13-5.14C250.58,50.79,251.56,50.12,251.45,48.9Z" transform="translate(-11.58 -5.33)"/><path class="cls-3" d="M356.15,62.45c-.22,2.5,2,3.65,1.38,5.41a11.91,11.91,0,0,1-4.77,5.87c-4.78,3.39-10,5.49-15.91,4.06-4.14-1-7.59-6-7.11-10.23a32.89,32.89,0,0,1,13.63-23.73A23.17,23.17,0,0,1,355,39.37a7.72,7.72,0,0,1,7.47,3.68,8.11,8.11,0,0,1,.86,8.17c-2.55,6.52-8.42,8.51-14,10.85a26.81,26.81,0,0,1-9.26,2.37c-2.2.09-2.83,1.29-2.72,3.31s1.37,2.72,3.26,2.84C347.06,71,351.89,68.21,356.15,62.45ZM354.77,47c-3.83.07-9.19,3.16-12.23,7-.52.65-1.7,1.28-1.11,2.27s1.65.17,2.46,0c1.34-.3,2.67-.65,4-1.08,2.95-1,5.89-2,8.23-4.18.82-.77,1.68-1.71,1.26-2.81S355.62,47,354.77,47Z" transform="translate(-11.58 -5.33)"/><path class="cls-3" d="M183.18,48.78c-1.76,10.64-5.53,20.27-14.36,27.09-3.33,2.56-7.2,3.58-11.21,1.07-5.08-3.17-7.39-7.7-6.17-13.47,2.39-11.27,8.68-19.8,19-25,5.32-2.69,12.22,2,12.69,8.44C183.22,47.5,183.18,48.14,183.18,48.78ZM158.51,67.64c.23,1.26.14,2.85,2.11,2.86a5.49,5.49,0,0,0,3.29-1.16c7.22-5.23,10.42-12.67,11.51-21.17.3-2.36-1.46-3.13-4-1.93A15.37,15.37,0,0,0,167.1,50,30.81,30.81,0,0,0,158.51,67.64Z" transform="translate(-11.58 -5.33)"/><path class="cls-3" d="M56.72,78.27c-7.88,0-13.24-6.45-12.58-12.67,1.25-11.8,7.66-20.23,17.43-26.38,3.14-2,6.51-2.53,9.74,0S76.58,45,76,49.34A43.5,43.5,0,0,1,65.3,72.64C62.57,75.76,59.26,78.26,56.72,78.27Zm11.5-29c-.1-1.56.22-2.67-.75-3.16a3.56,3.56,0,0,0-3.86.6A30.74,30.74,0,0,0,51.29,67.55c-.35,2.47.93,3.39,3.32,2.78A7.2,7.2,0,0,0,57.3,69C64.1,63.89,66.65,56.5,68.22,49.24Z" transform="translate(-11.58 -5.33)"/><path class="cls-4" d="M159.78,102.59c-.86-.46-1.38.29-2,.53-1.44.54-2.44.22-2.41-1.43,0-.85.1-1.49-.93-1.52a3.08,3.08,0,0,0-2.76,1.53c-.56.88.18,1.31.75,1.77,1.14.9,2.53,1.44,3.5,2.62,1.11,1.34,1.22,2.52,0,3.87a10.3,10.3,0,0,1-9.11,2.64c-2-.55-2.22-2.41-3-3.84-.33.1-.54.09-.65.2-1.36,1.25-.89,4.61-4.13,3.67-1.95-.56-4.2,1.37-5.95-.77-.36-.45-1-.29-1.52-.08-3.77,1.41-7.71,1-11.61,1-1.43,0-1.82-.88-1.82-2.18a10.81,10.81,0,0,1,1.32-4.15,112.27,112.27,0,0,1,5.81-13c.45-.79,1-1.51,1.51-2.28a2,2,0,0,1,2.67-.69c1.12.59.06,1.44-.21,2.09-2,4.8-4.07,9.59-6.2,14.35-.87,2-.32,2.31,1.68,2.22,2.15-.1,4.36-.61,6.49.37,1.25.58,1.29-.55,1.54-1.28a19.22,19.22,0,0,1,6.12-8.58c2.12-1.82,4.73-2.06,7.16-2.48s1.09,2.05,1.44,3.47c1.94-1.42,3.64-2.77,5.83-3.24,3.46-.75,5.11-.15,6.72,3,.77,1.49,1.37.85,2,.13a8.92,8.92,0,0,1,4.44-2.58c2.07-.65,3.74-.46,4.84,1.73s0,3.84-1.64,5.17c-2,1.59-4.39,2.22-6.78,2.87-.77.21-1.79.26-1.44,1.49.29,1,1.17,1.1,2,.88a9.51,9.51,0,0,0,3.71-1.7c.41-.33.93-.72,1.45-.18a1.47,1.47,0,0,1,.19,1.55c-.66,2-5.41,4-7.88,3.28-2.24-.68-3.24-2.93-2.55-5.81a23.62,23.62,0,0,1,.68-2.36C159.32,104.08,160.1,103.51,159.78,102.59Zm-12.28-2.31c-1.84,1.37-2.12,3.09-2.76,4.55-.55,1.24-.72,2.61,1.46,1.58a1.89,1.89,0,0,1,2.28.37c.85.87-.32,1.21-.55,1.79-.43,1.11-.05,1.64,1.08,1.45a12.27,12.27,0,0,0,2.33-.78c.78-.31,1.55-.75,1.63-1.68s-.76-1.45-1.48-1.77A6.23,6.23,0,0,1,147.5,100.28ZM137,109.41c.17,0,.51,0,.68-.2a24.91,24.91,0,0,0,5-7.09c.49-1-.48-1-1.13-.76-1.51.44-5.42,5.43-5.49,6.93C136,108.92,136.12,109.37,137,109.41Zm30-8.53c-1.15.38-2.54.77-3,2.23-.21.65.43,1,1.05.76,1.32-.47,3-.56,3.34-2.32C168.49,100.89,167.72,100.82,167,100.88Z" transform="translate(-11.58 -5.33)"/><path class="cls-3" d="M288.87,43.67c.16,1.34-.79,1.51-1.48,1.88-3.95,2.12-8,4-11.81,6.43a17.76,17.76,0,0,0-6.43,6.85c-2.65,5.32-4.79,10.86-6.92,16.41-1,2.61-1.64,2.78-3.44.75-.19-.2-.28-.57-.49-.65-3.91-1.32-2.52-4-1.73-6.54,2.81-9.2,6.77-17.94,10.56-26.75.64-1.49,1.49-2.51,3.28-2.24,1.28.2,2.27-.54,3.35-1,.6-.25,1.25-.5,1.77.1s.18,1,0,1.54c-.14.34-.34.66-.46,1-.23.66-.87,1.42-.18,2s1.31-.14,1.91-.52c2.25-1.41,4.53-2.77,6.77-4.19,1.91-1.21,3-.59,3.71,1.41C287.7,41.43,288.38,42.62,288.87,43.67Z" transform="translate(-11.58 -5.33)"/><path class="cls-4" d="M200.31,103.22c1,3.89-1,6.25-2.81,8.55-1.37,1.69-3.2,1.49-5,.61-2.63-1.27-4.16-3.3-4.05-6.27.24-6.2,3.87-10.5,8.19-14.41,1.85-1.68,3.77-2.81,6.43-1.94,2,.66,2.78,1.69,1.68,3.64a12.54,12.54,0,0,1-1.69,2.47c-.64.68-1.14,1.91-2.38,1.48S199.9,96,199.9,95c0-1.75-1.19-1.15-1.81-.52-3.29,3.42-5.85,7.25-6.14,12.18-.06,1-.14,2.14,1.17,2.45a2.77,2.77,0,0,0,3-.75C197.42,106.84,198.66,105.27,200.31,103.22Z" transform="translate(-11.58 -5.33)"/><path class="cls-4" d="M235.73,99.7c-.14,2.28-1.3,4.08-2.12,6-.74,1.76-1.73,3.41-2.49,5.17-.35.82-.54,1.57-1.67,1.27a1.77,1.77,0,0,1-1.43-2,10.2,10.2,0,0,1,1.28-3.57c.78-1.55,1.47-3.14,2.14-4.74.19-.46.63-1.07.07-1.49s-1.19,0-1.65.48a19.42,19.42,0,0,0-4.23,5.67c-.7,1.59-1.43,3.16-2.22,4.69-.33.64-.54,1.85-1.71,1-.74-.55-2-1-1.37-2.32,1.93-4.22,3.52-8.68,6-12.54,1.52-2.34,4.7.09,7.18-.44C234.8,96.56,235.66,98.28,235.73,99.7Z" transform="translate(-11.58 -5.33)"/><path class="cls-4" d="M205,112.46c-1.21.05-2.86-2.66-2.35-3.65,2.83-5.6,5.72-11.18,8.6-16.76.77-1.51,1.6-3,2.41-4.47.53-1,1.24-1.6,2.43-1,1.55.72.55,1.63.16,2.46Q211.11,99.9,206,110.79C205.67,111.41,205.25,112,205,112.46Z" transform="translate(-11.58 -5.33)"/><path class="cls-4" d="M253.07,105.87c.44,2.9-.93,4.77-2.78,6.46-1.55,1.42-3,.43-4.27-.31-2.39-1.42-2.78-4-2.15-6.3a16.59,16.59,0,0,1,8.54-10.84c1.48-.76,2.66-.17,3.8.62a1.3,1.3,0,0,1,.56,1.68c-.68,1.4-1.43,2.86-2.88,3.53-.9.42-1.23-.58-1.22-1.32.05-2.34-1.88-1.13-2.08-.8-1.81,2.89-4,5.64-4.2,9.26,0,1,.09,1.88,1.18,2.2a2.15,2.15,0,0,0,2.37-.92C250.87,108.07,251.53,106.72,253.07,105.87Z" transform="translate(-11.58 -5.33)"/><path class="cls-4" d="M171,109.55a61.13,61.13,0,0,1,4.52-11.22,1.64,1.64,0,0,1,1.93-.75c1.57.55,2.92.83,4.49-.28.71-.5,1.36.59,1.65,1.39s.18,1.28-.65,1.51c-5.3,1.45-7.27,5.76-9,10.33-.27.74-.16,2-1.55,1.83C171.67,112.25,171,111.09,171,109.55Z" transform="translate(-11.58 -5.33)"/><path class="cls-4" d="M240.9,99.14c.93.34,1.94.6,1.34,1.89-1.66,3.55-3.37,7.09-5.05,10.64-.26.55-.57,1-1.2.49s-1.66-1.1-1.26-1.93c1.74-3.62,3.64-7.16,5.51-10.71C240.34,99.33,240.69,99.26,240.9,99.14Z" transform="translate(-11.58 -5.33)"/><path class="cls-4" d="M219.27,100.55c-.18.32-.36.64-.52,1-1.51,3.12-3,6.25-4.55,9.34-.27.54-.35,1.64-1.43,1.17-.9-.39-1.65-1.16-1.17-2.16,1.67-3.44,3.47-6.81,5.24-10.2.33-.63.87-.54,1.41-.25S219.26,99.87,219.27,100.55Z" transform="translate(-11.58 -5.33)"/><path class="cls-4" d="M245.08,94.93c-.42.77-.28,2.11-1.7,2-.67,0-1.26-.51-1-1.31s.59-2,1.92-1.94C245,93.75,245.22,94.24,245.08,94.93Z" transform="translate(-11.58 -5.33)"/><path class="cls-4" d="M221.71,95c-.45.71-.39,2-1.72,2a1,1,0,0,1-1-1.33c.19-1.06.74-1.89,1.92-1.93C221.6,93.69,221.75,94.28,221.71,95Z" transform="translate(-11.58 -5.33)"/><polygon class="cls-4" points="90.81 8.6 90.64 8.41 90.82 8.41 90.81 8.6"/></g></g></g></svg>